PathFileType	4	(X/Y/Z)	C:/Users/opensim2020/Desktop/walking_exp_matlab/subject06_walking20_straight_03.trc																																																																																																																															
DataRate	CameraRate	NumFrames	NumMarkers	Units	OrigDataRate	OrigDataStartFrame	OrigNumFrames																																																																																																																											
100	100	9	43	mm	100	1796	132																																																																																																																											
Frame#	Time	LFHD			RFHD			LBHD			RBHD			C7			T10			CLAV			STRN			RBAK			LSHO			LUPA			LELB			LFRM			LWRA			LWRB			LFIN			RSHO			RUPA			RELB			RFRM			RWRA			RWRB			RFIN			LASI			RASI			LPSI			RPSI			LTHI			LKNE			LTIB			LANK			LHEE			LTOE			RTHI			RKNE			RTIB			RANK			RHEE			RTOE			*39			*40			*41			*42		
		X1	Y1	Z1	X2	Y2	Z2	X3	Y3	Z3	X4	Y4	Z4	X5	Y5	Z5	X6	Y6	Z6	X7	Y7	Z7	X8	Y8	Z8	X9	Y9	Z9	X10	Y10	Z10	X11	Y11	Z11	X12	Y12	Z12	X13	Y13	Z13	X14	Y14	Z14	X15	Y15	Z15	X16	Y16	Z16	X17	Y17	Z17	X18	Y18	Z18	X19	Y19	Z19	X20	Y20	Z20	X21	Y21	Z21	X22	Y22	Z22	X23	Y23	Z23	X24	Y24	Z24	X25	Y25	Z25	X26	Y26	Z26	X27	Y27	Z27	X28	Y28	Z28	X29	Y29	Z29	X30	Y30	Z30	X31	Y31	Z31	X32	Y32	Z32	X33	Y33	Z33	X34	Y34	Z34	X35	Y35	Z35	X36	Y36	Z36	X37	Y37	Z37	X38	Y38	Z38	X39	Y39	Z39	X40	Y40	Z40	X41	Y41	Z41	X42	Y42	Z42	X43	Y43	Z43
																																																																																																																																		
116	1.15	658.45392	1636.91699	-1019.44794	631.21552	1610.96814	-892.79523	529.96191	1583.08826	-1054.3175	504.20059	1562.29944	-929.25366	518.73413	1419.96863	-1007.65802	481.50571	1089.88806	-1011.60956	628.54315	1341.08765	-996.0614	666.95953	1165.9126	-1009.26416	436.27011	1244.6687	-947.83063	590.22333	1380.3645	-1162.1366	616.11847	1186.21948	-1246.56421	637.95868	1077.74951	-1268.39429	751.42456	983.83417	-1276.6803	865.31036	953.42163	-1215.297	837.52155	902.83917	-1255.44861	925.56659	891.70325	-1248.78247	562.62592	1363.66577	-839.4599	475.92065	1175.70532	-769.44684	455.62265	1055.5481	-757.84875	430.63266	937.73718	-740.19104	445.80319	784.66217	-759.40533	388.46533	806.36212	-731.56049	394.27554	722.44141	-724.21344	654.18219	927.71155	-1121.49792	665.49915	938.1037	-900.01068	497.24319	956.98199	-1084.88696	510.73361	961.34253	-915.60437	540.1806	617.87433	-1169.72351	501.97382	456.40134	-1145.20068	319.54749	269.27209	-1142.01501	211.31851	133.64082	-1099.88391	167.91576	149.49287	-1060.6438	311.10083	31.51908	-1073.07764	702.16907	624.09381	-846.78461	758.565	515.3728	-881.90643	771.88483	250.33414	-886.28229	787.51807	67.63461	-935.99689	750.65228	43.61852	-982.07416	941.60461	37.47904	-937.98694	547.08209	1667.87671	-979.07654	NaN	NaN	NaN	NaN	NaN	NaN	NaN	NaN	NaN
117	1.16	674.3645	1639.27039	-1017.08087	646.93549	1613.23865	-890.59106	545.88513	1585.63635	-1052.27063	519.78613	1564.78516	-927.34149	534.80334	1422.34985	-1006.17834	496.98758	1092.69446	-1011.30762	644.34766	1343.50232	-994.3382	682.85364	1168.43225	-1007.64276	452.20801	1247.37439	-946.55078	607.01154	1383.3457	-1160.29614	631.90594	1188.98645	-1244.54016	652.91937	1080.34802	-1265.79602	765.52069	985.12988	-1274.46448	879.16821	953.93219	-1213.58887	850.70667	903.13782	-1253.01782	938.52472	891.42542	-1247.07544	578.29633	1365.80408	-837.9668	493.12869	1177.04724	-768.06915	473.8522	1056.74292	-756.78101	449.53513	938.85248	-739.02014	465.31024	785.82318	-758.61243	408.14038	807.21442	-730.27283	414.33978	723.32306	-723.1261	671.32977	929.94507	-1118.47339	681.46075	942.6817	-897.93799	514.43213	958.97412	-1085.80603	526.32172	964.57849	-916.87726	561.6861	617.83472	-1168.65881	527.13068	455.73575	-1145.37219	338.36227	275.67993	-1142.56372	224.67517	144.56787	-1102.3269	183.19522	163.26656	-1062.54016	312.40326	31.2351	-1072.5498	721.73981	629.96161	-846.58112	774.00854	518.32129	-882.43274	781.93762	252.38986	-884.70148	790.00836	67.57055	-935.96191	751.62012	44.16121	-981.17249	943.25555	36.53187	-938.90112	563.0249	1670.32422	-976.90674	NaN	NaN	NaN	NaN	NaN	NaN	NaN	NaN	NaN
118	1.17	690.33099	1641.52441	-1014.76245	662.61481	1615.38318	-888.40393	561.83868	1588.33728	-1050.32703	535.34058	1567.53491	-925.42413	550.55237	1424.73572	-1004.71863	512.73047	1095.57043	-1010.64819	660.10248	1346.04224	-992.65961	698.86377	1171.17139	-1006.10242	468.25534	1250.20129	-945.46204	623.69043	1386.43213	-1158.27429	648.01465	1192.21716	-1242.50671	667.67853	1083.39807	-1263.07349	778.85907	986.43201	-1272.28235	892.32556	953.91107	-1212.00049	862.68414	903.0072	-1250.6864	950.35303	890.07257	-1245.56738	593.77869	1368.3363	-836.65356	510.69034	1178.91406	-766.84283	492.16934	1058.35449	-755.62598	468.85876	940.36426	-737.89368	485.78653	787.38885	-757.76086	428.45981	808.38245	-728.94684	435.39981	724.42102	-722.08179	688.31946	932.48267	-1115.92566	696.97412	947.48859	-895.87854	531.50336	960.99597	-1086.11243	541.79059	967.53522	-917.54095	583.56055	618.00616	-1167.92749	553.258	455.3652	-1146.05652	359.2608	282.38593	-1143.31201	240.54716	155.40192	-1104.89001	201.78714	176.84564	-1064.09766	314.69766	31.77723	-1072.53101	738.44653	633.6839	-845.6463	786.75085	519.94897	-881.60327	790.47418	252.64209	-884.45569	791.90643	68.09719	-936.35284	752.27588	44.73065	-980.8587	944.83972	35.63037	-940.58508	579.03748	1672.88647	-974.72449	NaN	NaN	NaN	NaN	NaN	NaN	NaN	NaN	NaN
119	1.18	706.39886	1643.77222	-1012.42798	678.31696	1617.4259	-886.21869	577.84949	1591.10181	-1048.44763	550.9765	1570.06018	-923.6637	566.12054	1427.0647	-1003.28607	528.41052	1098.57544	-1009.94354	675.93323	1348.62231	-991.09729	714.93341	1173.97192	-1004.79767	484.37567	1253.09729	-944.49609	640.02771	1389.46155	-1156.13452	664.08997	1195.35547	-1239.94324	681.94556	1086.54236	-1260.20215	791.49597	987.56738	-1270.0177	904.42694	952.88898	-1210.37427	873.76965	902.44354	-1248.63232	961.16284	887.66754	-1244.11536	609.20288	1371.0564	-835.35455	527.82819	1180.95068	-765.48499	510.47672	1060.31189	-754.63312	488.22684	942.19647	-736.52039	506.13998	788.86725	-757.43158	449.95145	809.77582	-727.60492	457.45532	725.63379	-721.01331	704.98511	935.20386	-1113.69202	712.20697	951.8653	-894.02521	548.10809	963.203	-1085.64783	557.67877	970.19855	-917.53992	605.53552	618.32788	-1167.51624	579.6319	455.24423	-1146.84338	382.16336	288.66507	-1143.45166	259.43372	165.25009	-1108.01526	222.68137	189.96941	-1066.68127	320.28763	34.33276	-1073.56335	751.00934	634.77185	-845.03009	797.8075	520.39642	-880.95593	797.26154	251.61584	-885.09979	793.42188	68.049	-936.77496	752.87561	45.0113	-980.88477	945.82166	34.87971	-940.96118	595.10779	1675.44226	-972.5882	NaN	NaN	NaN	NaN	NaN	NaN	NaN	NaN	NaN
120	1.19	722.4826	1645.99475	-1010.08368	693.87402	1619.35608	-883.99915	593.78705	1593.86182	-1046.64246	566.52515	1572.56433	-921.90259	581.49414	1429.30054	-1001.73877	544.05847	1101.52588	-1009.06921	691.59601	1351.18958	-989.52484	731.13275	1176.80029	-1003.54791	500.34546	1255.97742	-943.28796	656.0451	1392.34705	-1153.99207	680.13104	1198.66577	-1237.60742	695.9184	1089.51843	-1257.59973	803.55048	988.31409	-1268.01013	916.17706	951.30176	-1209.02612	884.11267	901.39844	-1246.89795	971.10052	884.23315	-1242.72144	624.58038	1373.82178	-834.03412	544.81378	1183.20728	-764.05121	528.27283	1062.45715	-753.33813	507.80502	944.0639	-735.33649	528.05402	790.9621	-756.51807	471.52728	810.98114	-726.48676	480.40988	726.94843	-720.07111	721.44983	938.07922	-1112.24536	728.10199	955.64441	-892.42426	564.15057	965.53693	-1084.59766	573.68066	972.93738	-916.83972	627.12335	618.74176	-1167.1438	605.81219	455.2717	-1147.48499	407.02356	294.23224	-1144.40369	280.33807	174.82637	-1110.71313	244.7495	202.58043	-1070.08069	329.22861	39.3122	-1074.2793	761.56494	634.31213	-844.45758	807.43097	519.5946	-880.51166	802.47351	250.83693	-886.24158	794.09149	67.67579	-937.49396	752.7608	45.21193	-981.08813	946.08386	34.4024	-941.07849	611.17102	1677.9231	-970.46869	NaN	NaN	NaN	NaN	NaN	NaN	NaN	NaN	NaN
121	1.2	738.4455	1648.25928	-1007.80902	709.50586	1621.27429	-881.87872	609.67188	1596.63684	-1044.83508	581.97937	1575.0177	-920.27026	596.86493	1431.51599	-1000.20038	559.72729	1104.31299	-1007.96851	707.11981	1353.72339	-988.03638	747.1936	1179.64758	-1002.3894	516.12701	1258.56665	-941.91742	671.51819	1394.97839	-1151.94812	695.61456	1201.61292	-1235.08728	709.44403	1092.19885	-1255.24512	815.11328	988.63367	-1266.32104	927.50177	949.01935	-1207.96399	893.83099	899.77478	-1245.57349	980.3595	879.92767	-1241.39355	640.05707	1376.45288	-832.69159	561.52917	1185.49902	-762.48065	545.90106	1064.60901	-751.91431	527.44177	945.87695	-734.05035	550.57904	793.18915	-755.5094	493.7121	812.1853	-725.48273	504.10989	728.25366	-719.14508	736.98999	940.92987	-1111.18542	743.70544	958.51788	-891.33356	579.7594	967.78516	-1083.14819	589.63342	975.51929	-915.6286	648.25568	619.32684	-1166.59875	632.23529	455.47174	-1147.84473	433.2146	298.70389	-1145.61328	302.73523	184.12132	-1112.92334	268.88419	214.82936	-1073.48975	341.56909	46.02502	-1076.18823	772.0769	633.40906	-843.802	816.30438	518.28534	-880.15045	805.75305	250.03253	-887.5415	794.31104	67.98659	-937.89655	752.66711	45.30861	-981.48267	946.36676	33.9625	-941.93176	627.15167	1680.37402	-968.33441	NaN	NaN	NaN	NaN	NaN	NaN	NaN	NaN	NaN
122	1.21	754.34833	1650.69934	-1005.59625	725.04572	1623.34143	-879.74615	625.46075	1599.49231	-1043.01648	597.4408	1577.52222	-918.62628	612.18988	1433.81934	-998.62939	575.5152	1106.79211	-1006.68457	722.67188	1356.37878	-986.70172	762.97247	1182.4325	-1001.29248	531.82098	1260.81665	-940.34729	686.5943	1397.71765	-1150.39624	710.43018	1204.20166	-1232.90283	722.69354	1094.40393	-1253.23816	826.89496	988.73431	-1265.53528	937.96216	945.64111	-1207.03357	902.98419	897.58374	-1244.73657	988.98853	874.7821	-1240.1405	655.68939	1378.97009	-831.22992	578.14429	1187.74512	-760.79047	563.3667	1066.63928	-750.52771	547.3017	947.44653	-732.84033	573.51453	795.4408	-754.52112	516.20966	813.08936	-724.50122	528.47913	729.45233	-718.27313	751.75116	943.64313	-1110.47729	759.32263	960.35101	-890.5639	595.02637	969.98566	-1081.49304	605.67639	977.9859	-914.10388	668.79144	620.17358	-1165.87756	658.7182	456.11115	-1147.98669	460.22852	302.29117	-1146.45276	326.14417	192.98355	-1114.68323	293.72318	225.03923	-1075.30859	358.90088	52.4081	-1079.62451	782.23724	632.0058	-843.77197	825.51099	517.25775	-880.35504	808.20453	250.00876	-887.72083	794.4892	68.22258	-938.3418	752.62048	45.37927	-981.77667	946.64587	33.67593	-942.49194	643.03564	1682.93298	-966.21509	NaN	NaN	NaN	NaN	NaN	NaN	NaN	NaN	NaN
123	1.22	770.13074	1653.17822	-1003.42255	740.61188	1625.49792	-877.7677	641.20142	1602.42419	-1041.2561	612.91266	1580.17261	-916.95782	627.50751	1436.23865	-996.9176	591.28931	1109.07068	-1005.10553	738.01996	1359.01477	-985.36188	778.61407	1185.12195	-1000.30908	547.61182	1262.83704	-938.51001	701.26324	1400.32043	-1149.17517	724.51471	1206.43542	-1231.28979	735.60809	1096.19934	-1251.47925	837.65057	988.01447	-1264.39478	948.49536	942.00208	-1206.30273	911.60199	895.00836	-1244.35742	996.8891	868.94495	-1239.03687	671.44922	1381.29333	-829.71613	594.2724	1189.87854	-758.78601	580.58813	1068.5929	-748.73401	566.98071	949.0144	-731.3775	597.03186	797.84363	-753.50507	539.13397	813.95679	-723.58856	553.63751	730.7337	-717.49756	766.93079	946.20624	-1110.78979	774.62775	961.46716	-890.20013	609.95251	972.15295	-1079.73657	621.5152	980.37579	-912.27417	688.86359	621.44775	-1165.19238	685.21808	457.41608	-1148.10962	487.63156	305.26572	-1147.172	349.42334	201.18802	-1115.37292	316.98981	232.1906	-1074.47681	382.43417	59.05211	-1084.37708	792.14227	630.99811	-843.71765	834.05487	516.10608	-880.5885	809.73602	250.25232	-887.24158	794.526	68.50986	-938.54352	752.66315	45.55168	-982.01227	946.84106	33.39929	-942.3678	658.8772	1685.59802	-964.12531	NaN	NaN	NaN	NaN	NaN	NaN	NaN	NaN	NaN
124	1.23	785.87061	1655.61975	-1001.39001	756.12616	1627.6134	-875.86133	656.80536	1605.30774	-1039.46143	628.4054	1582.74304	-915.25482	643.00623	1438.77954	-995.25842	606.95258	1111.13599	-1003.46564	753.36993	1361.58887	-984.15613	794.06036	1187.67639	-999.33929	563.24329	1264.76477	-936.43927	715.74689	1402.81384	-1148.1825	737.8233	1208.29199	-1230.1189	748.42712	1097.72229	-1249.92432	847.89697	986.84418	-1263.47485	958.10767	937.78424	-1205.98926	919.69745	892.14575	-1244.28882	1003.9585	862.64038	-1238.20593	687.38324	1383.50256	-828.19806	610.77283	1191.89832	-756.91754	597.70264	1070.43799	-746.97333	586.63361	950.45428	-729.98596	620.15289	799.86963	-753.00366	562.43433	814.7251	-722.71411	579.32837	732.00604	-716.68097	782.09241	948.93652	-1110.625	790.14288	962.13318	-889.83563	624.91394	974.30579	-1078.03906	637.16241	982.77448	-910.42291	709.01282	623.16974	-1164.69946	711.76636	459.52377	-1148.40857	514.70374	308.76871	-1147.86975	374.48843	207.86833	-1115.27905	341.80035	236.65392	-1073.26172	410.74017	64.97746	-1088.69885	801.9657	630.88861	-843.0058	841.6405	515.38812	-879.72009	811.03052	250.2887	-886.18182	794.60852	68.58044	-938.49188	752.59912	45.67784	-981.92719	946.99609	33.18696	-942.28595	674.60999	1688.18323	-962.0824	NaN	NaN	NaN	NaN	NaN	NaN	NaN	NaN	NaN
